<?xml version="1.0" standalone="no"?>
<!DOCTYPE svg PUBLIC "-//W3C//DTD SVG 20010904//EN"
 "http://www.w3.org/TR/2001/REC-SVG-20010904/DTD/svg10.dtd">
<svg version="1.0" xmlns="http://www.w3.org/2000/svg"
 width="303.000000pt" height="261.000000pt" viewBox="0 0 303.000000 261.000000"
 preserveAspectRatio="xMidYMid meet">
<metadata>
Created by potrace 1.10, written by Peter Selinger 2001-2011
</metadata>
<g transform="translate(0.000000,261.000000) scale(0.100000,-0.100000)"
fill="#0f559f" stroke="none">
<path d="M2635 2562 c-28 -2 -58 -11 -68 -20 -24 -21 -47 -65 -47 -88 0 -10
-7 -25 -15 -34 -13 -14 -11 -23 17 -80 48 -97 75 -120 140 -120 68 1 96 23
137 111 36 76 36 76 16 95 -8 9 -15 28 -15 43 0 36 -47 87 -85 92 -16 3 -52 3
-80 1z"/>
<path d="M535 2534 c-67 -17 -155 -93 -155 -133 0 -24 -28 -90 -46 -108 -18
-19 -8 -62 20 -84 12 -9 32 -39 46 -65 26 -53 68 -101 108 -121 13 -7 53 -13
87 -13 64 0 108 16 147 52 20 20 58 87 58 103 0 6 14 24 30 40 33 31 40 74 16
94 -8 7 -18 31 -21 54 -12 69 -56 131 -114 160 -36 19 -138 30 -176 21z"/>
<path d="M2496 2162 c-3 -5 -21 -13 -40 -16 -107 -20 -140 -79 -134 -237 l3
-74 35 -5 c55 -9 60 -4 60 61 0 45 3 59 15 59 10 0 15 -16 17 -62 l3 -63 210
1 c116 1 245 1 288 2 l77 1 0 60 c0 45 -4 61 -14 61 -9 0 -16 19 -20 61 -6 48
-13 68 -34 89 -25 24 -139 70 -176 70 -14 0 -36 -74 -36 -124 0 -28 -44 -73
-55 -56 -4 6 -9 44 -10 83 -2 40 -4 75 -4 80 -1 4 -10 7 -21 7 -11 0 -20 -3
-20 -7 -5 -176 -17 -215 -47 -147 -10 21 -22 66 -28 99 -9 54 -12 60 -37 63
-14 2 -29 -1 -32 -6z m391 -289 c-2 -16 -4 -3 -4 27 0 30 2 43 4 28 2 -16 2
-40 0 -55z"/>
<path d="M1782 2087 c-51 -19 -100 -64 -122 -113 -20 -42 -21 -62 -20 -400 1
-196 -2 -359 -5 -362 -4 -4 -79 -8 -168 -10 -140 -3 -166 -6 -187 -22 -24 -18
-24 -20 -7 -37 15 -15 41 -19 187 -23 92 -3 171 -8 175 -12 3 -3 6 -166 5
-362 -1 -333 1 -358 19 -398 26 -57 77 -104 126 -117 22 -6 116 -11 208 -11
195 0 234 11 191 54 -13 13 -43 16 -173 16 -189 0 -217 9 -264 82 -15 25 -17
62 -17 378 l0 350 26 10 c14 6 108 10 209 10 190 0 235 8 235 40 0 32 -45 40
-235 40 -101 0 -195 4 -209 10 l-26 10 0 350 c0 315 2 353 17 378 24 38 53 62
74 62 10 0 21 5 24 10 4 6 70 10 164 10 146 0 159 2 176 20 18 20 18 21 -1 35
-25 19 -351 20 -402 2z"/>
<path d="M385 1963 c-23 -5 -100 -31 -130 -43 -11 -5 -31 -12 -45 -16 -14 -4
-34 -13 -46 -21 -21 -13 -67 -97 -79 -143 -3 -14 -10 -34 -14 -45 -26 -63 -35
-157 -39 -383 -3 -209 -1 -250 14 -287 26 -70 86 -83 149 -33 27 21 27 22 19
92 -12 98 -10 325 4 420 12 81 47 170 63 160 5 -3 9 -328 9 -785 l0 -779 36
-35 c33 -32 41 -35 95 -35 53 0 61 3 94 35 l35 35 2 422 c3 388 4 422 20 432
13 8 23 8 35 0 17 -10 18 -45 23 -430 4 -301 8 -425 17 -440 39 -69 143 -73
235 -11 3 2 13 877 16 1294 l1 283 25 -12 c20 -8 26 -20 31 -57 3 -25 10 -70
16 -100 7 -31 10 -140 7 -268 -3 -205 -2 -215 17 -229 52 -38 108 -28 138 26
17 30 20 60 24 220 5 178 -3 288 -28 415 -6 33 -15 64 -20 70 -5 5 -9 15 -9
23 0 23 -49 117 -72 139 -13 12 -36 25 -53 29 -16 4 -34 10 -40 14 -5 4 -26
11 -45 15 -19 3 -50 13 -68 21 -51 24 -65 16 -75 -41 -4 -28 -12 -54 -18 -59
-5 -6 -9 -16 -9 -24 0 -26 -43 -112 -56 -112 -8 0 -16 12 -20 28 -3 15 -11 49
-17 75 -8 37 -8 53 1 67 18 29 15 44 -12 56 -18 8 -30 8 -50 -3 -27 -14 -35
-38 -14 -45 17 -6 13 -67 -7 -127 -20 -62 -32 -70 -46 -34 -7 15 -18 42 -25
60 -8 17 -14 38 -14 46 0 9 -4 18 -9 21 -4 3 -11 28 -15 56 -7 50 -10 53 -51
43z"/>
<path d="M2588 1665 c-35 -23 -57 -58 -74 -115 -3 -14 -11 -27 -15 -30 -5 -4
8 -40 29 -80 54 -107 116 -143 184 -107 38 19 51 36 86 108 31 63 31 68 17 95
-8 16 -15 38 -15 49 -1 25 -38 69 -78 89 -43 22 -91 19 -134 -9z"/>
<path d="M2500 1273 c-8 -2 -24 -8 -35 -13 -11 -5 -36 -14 -56 -20 -46 -14
-64 -34 -78 -85 -11 -44 -17 -192 -8 -201 3 -3 21 -9 41 -14 45 -10 54 0 58
70 4 77 22 68 26 -12 l3 -68 97 -1 c188 -3 317 3 324 15 4 6 8 36 9 66 l2 55
6 -57 c3 -31 9 -59 13 -63 3 -3 33 -3 67 1 l61 7 0 53 c0 41 -4 54 -15 54 -10
0 -15 10 -15 28 0 43 -20 105 -42 129 -11 12 -35 25 -52 29 -17 3 -35 10 -41
14 -17 13 -69 19 -86 9 -11 -5 -19 -28 -24 -66 -8 -64 -40 -122 -58 -104 -6 6
-12 46 -13 88 -2 73 -3 78 -24 78 -20 0 -21 -5 -23 -77 -1 -42 -7 -82 -13 -88
-17 -17 -50 44 -59 108 -5 36 -13 55 -25 62 -10 6 -20 10 -22 9 -2 0 -10 -3
-18 -6z"/>
<path d="M2625 791 c-53 -18 -74 -36 -90 -75 -9 -22 -23 -54 -30 -71 -11 -27
-10 -34 11 -65 12 -19 23 -43 23 -53 1 -11 16 -34 35 -53 30 -30 40 -34 88
-34 71 0 92 16 134 104 39 82 40 89 19 106 -8 7 -15 23 -15 37 0 29 -23 66
-53 86 -27 18 -95 28 -122 18z"/>
<path d="M2490 379 c-19 -5 -46 -14 -60 -20 -91 -39 -99 -52 -109 -187 -9
-111 -2 -125 59 -120 35 3 35 3 40 61 6 69 24 80 28 17 5 -98 -13 -90 203 -90
112 0 198 4 210 10 15 9 19 23 21 68 l1 57 6 -60 6 -60 68 -3 67 -3 0 61 c0
44 -4 60 -14 60 -9 0 -16 19 -20 58 -4 32 -14 68 -22 81 -17 23 -73 51 -143
71 -55 15 -65 5 -75 -72 -8 -57 -33 -108 -53 -108 -13 0 -17 28 -18 125 0 47
-2 50 -25 50 -24 0 -25 -3 -22 -47 5 -64 -7 -128 -23 -128 -13 0 -39 62 -50
120 -14 77 -12 76 -75 59z"/>
</g>
</svg>
